<svg width="1120" height="50" viewBox="0 0 1120 50" fill="none" xmlns="http://www.w3.org/2000/svg">
<path opacity="0.5" d="M40.0652 6.25671L30.2601 40.9917C30.2102 41.1494 30.0108 41.1967 29.8945 41.0863L23.3301 34.8583L28.2492 17.4514C28.2991 17.2937 28.1495 17.1518 27.9833 17.1991L9.63617 21.8662L3.10498 15.6697C2.98865 15.5593 3.03851 15.3701 3.20469 15.3228L39.7993 6.00444C39.9655 5.97291 40.115 6.11481 40.0652 6.25671Z" fill="#00B37E"/>
<path opacity="0.5" d="M23.3297 34.858L20.8037 43.8452C20.7538 44.0029 20.5544 44.0502 20.4381 43.9398L0.0634003 24.6251C-0.0529313 24.5147 -0.00307518 24.3255 0.163113 24.2782L9.63583 21.8658L23.3297 34.858Z" fill="#00B37E"/>
<path d="M28.2484 17.4511L23.3292 34.858L9.63533 21.8659L27.9825 17.1988C28.1487 17.1515 28.2982 17.2934 28.2484 17.4511Z" fill="#00B37E"/>
<path d="M63.2741 33.5H59.3139L59.3389 30.5767H63.2741C64.2569 30.5767 65.0856 30.356 65.7602 29.9146C66.4348 29.4648 66.9428 28.811 67.2843 27.9532C67.6341 27.0953 67.809 26.0584 67.809 24.8425V23.9555C67.809 23.0227 67.7091 22.2023 67.5092 21.4944C67.3176 20.7865 67.0303 20.191 66.6472 19.7079C66.2641 19.2249 65.7935 18.8626 65.2355 18.621C64.6775 18.3712 64.0362 18.2462 63.3116 18.2462H59.2389V15.3104H63.3116C64.5276 15.3104 65.6394 15.5186 66.6472 15.9351C67.6633 16.3432 68.5419 16.9303 69.2832 17.6966C70.0244 18.4628 70.5949 19.3789 70.9947 20.445C71.4028 21.5027 71.6068 22.6812 71.6068 23.9805V24.8425C71.6068 26.1334 71.4028 27.3119 70.9947 28.3779C70.5949 29.444 70.0244 30.3601 69.2832 31.1264C68.5503 31.8843 67.6716 32.4714 66.6472 32.8879C65.6311 33.296 64.5067 33.5 63.2741 33.5ZM61.4377 15.3104V33.5H57.6898V15.3104H61.4377ZM81.6136 15.3104V33.5H77.8782V15.3104H81.6136ZM87.2104 15.3104V18.2462H72.3689V15.3104H87.2104ZM96.7549 15.3104H99.9281L104.6 28.6653L109.273 15.3104H112.446L105.875 33.5H103.326L96.7549 15.3104ZM95.0434 15.3104H98.2041L98.7788 28.328V33.5H95.0434V15.3104ZM110.997 15.3104H114.17V33.5H110.422V28.328L110.997 15.3104ZM116.656 26.8788V26.6164C116.656 25.6253 116.798 24.7134 117.081 23.8805C117.364 23.0393 117.776 22.3106 118.318 21.6943C118.859 21.078 119.525 20.5991 120.316 20.2576C121.108 19.9078 122.015 19.7329 123.04 19.7329C124.064 19.7329 124.976 19.9078 125.776 20.2576C126.575 20.5991 127.246 21.078 127.787 21.6943C128.337 22.3106 128.753 23.0393 129.036 23.8805C129.32 24.7134 129.461 25.6253 129.461 26.6164V26.8788C129.461 27.8616 129.32 28.7735 129.036 29.6147C128.753 30.4476 128.337 31.1763 127.787 31.801C127.246 32.4173 126.579 32.8962 125.788 33.2377C124.997 33.5791 124.089 33.7499 123.065 33.7499C122.04 33.7499 121.128 33.5791 120.329 33.2377C119.538 32.8962 118.867 32.4173 118.318 31.801C117.776 31.1763 117.364 30.4476 117.081 29.6147C116.798 28.7735 116.656 27.8616 116.656 26.8788ZM120.254 26.6164V26.8788C120.254 27.4451 120.304 27.974 120.404 28.4654C120.504 28.9568 120.662 29.3899 120.879 29.7646C121.103 30.1311 121.395 30.4184 121.753 30.6266C122.111 30.8349 122.548 30.939 123.065 30.939C123.565 30.939 123.993 30.8349 124.352 30.6266C124.71 30.4184 124.997 30.1311 125.214 29.7646C125.43 29.3899 125.588 28.9568 125.688 28.4654C125.797 27.974 125.851 27.4451 125.851 26.8788V26.6164C125.851 26.0668 125.797 25.5504 125.688 25.0673C125.588 24.576 125.426 24.1429 125.201 23.7681C124.985 23.385 124.697 23.0851 124.339 22.8686C123.981 22.6521 123.548 22.5438 123.04 22.5438C122.532 22.5438 122.099 22.6521 121.741 22.8686C121.391 23.0851 121.103 23.385 120.879 23.7681C120.662 24.1429 120.504 24.576 120.404 25.0673C120.304 25.5504 120.254 26.0668 120.254 26.6164ZM135.195 22.8686V33.5H131.597V19.9828H134.97L135.195 22.8686ZM134.671 26.2666H133.696C133.696 25.2672 133.825 24.3677 134.084 23.5682C134.342 22.7603 134.704 22.0732 135.17 21.5069C135.637 20.9322 136.191 20.495 136.832 20.1951C137.482 19.887 138.206 19.7329 139.006 19.7329C139.639 19.7329 140.217 19.8245 140.742 20.0077C141.267 20.191 141.717 20.4825 142.091 20.8822C142.475 21.282 142.766 21.8109 142.966 22.4688C143.174 23.1268 143.278 23.9305 143.278 24.8799V33.5H139.655V24.8675C139.655 24.2678 139.572 23.8014 139.405 23.4683C139.239 23.1351 138.993 22.9019 138.668 22.7687C138.352 22.6271 137.96 22.5563 137.494 22.5563C137.011 22.5563 136.59 22.6521 136.232 22.8436C135.882 23.0352 135.591 23.3017 135.358 23.6432C135.133 23.9763 134.962 24.3677 134.846 24.8175C134.729 25.2672 134.671 25.7503 134.671 26.2666ZM152.236 33.7499C151.186 33.7499 150.245 33.5833 149.412 33.2501C148.579 32.9087 147.871 32.4381 147.288 31.8385C146.714 31.2388 146.272 30.5434 145.964 29.7521C145.656 28.9526 145.502 28.1031 145.502 27.2036V26.7039C145.502 25.6795 145.648 24.7425 145.939 23.893C146.231 23.0435 146.647 22.3064 147.188 21.6818C147.738 21.0571 148.404 20.5782 149.187 20.2451C149.97 19.9036 150.853 19.7329 151.836 19.7329C152.794 19.7329 153.643 19.8911 154.384 20.2076C155.126 20.5241 155.746 20.9739 156.246 21.5569C156.754 22.1398 157.137 22.8394 157.395 23.6556C157.653 24.4635 157.782 25.363 157.782 26.3541V27.8532H147.039V25.4546H154.247V25.1798C154.247 24.6801 154.155 24.2345 153.972 23.843C153.797 23.4433 153.531 23.1268 153.173 22.8936C152.814 22.6604 152.356 22.5438 151.798 22.5438C151.324 22.5438 150.916 22.6479 150.574 22.8561C150.233 23.0643 149.954 23.3558 149.737 23.7306C149.529 24.1054 149.371 24.5468 149.262 25.0548C149.162 25.5546 149.112 26.1042 149.112 26.7039V27.2036C149.112 27.745 149.187 28.2447 149.337 28.7028C149.495 29.1608 149.716 29.5564 149.999 29.8896C150.291 30.2227 150.641 30.4809 151.049 30.6641C151.465 30.8474 151.936 30.939 152.46 30.939C153.11 30.939 153.714 30.814 154.272 30.5642C154.838 30.306 155.325 29.9187 155.734 29.4024L157.483 31.3013C157.199 31.7094 156.812 32.1008 156.321 32.4756C155.838 32.8504 155.255 33.1585 154.572 33.4001C153.889 33.6333 153.11 33.7499 152.236 33.7499ZM163.667 31.9759L167.252 19.9828H171.112L165.678 35.5363C165.561 35.8778 165.403 36.2443 165.203 36.6357C165.012 37.0271 164.749 37.3978 164.416 37.7476C164.091 38.1057 163.679 38.3972 163.179 38.6221C162.688 38.8469 162.084 38.9594 161.368 38.9594C161.026 38.9594 160.747 38.9385 160.531 38.8969C160.314 38.8553 160.056 38.797 159.756 38.722V36.086C159.848 36.086 159.944 36.086 160.044 36.086C160.144 36.0943 160.239 36.0985 160.331 36.0985C160.806 36.0985 161.193 36.0444 161.493 35.9361C161.793 35.8278 162.034 35.6613 162.217 35.4364C162.401 35.2198 162.546 34.9367 162.655 34.5869L163.667 31.9759ZM162.167 19.9828L165.103 29.7771L165.615 33.5874L163.167 33.8498L158.307 19.9828H162.167Z" fill="#E1E1E6"/>
<rect x="967.798" width="152" height="50" rx="6" fill="#00875F"/>
<path d="M998.071 18.625V30H995.728L991.157 22.375V30H988.813V18.625H991.157L995.735 26.2578V18.625H998.071ZM999.61 25.8594V25.6953C999.61 25.0755 999.699 24.5052 999.876 23.9844C1000.05 23.4583 1000.31 23.0026 1000.65 22.6172C1000.99 22.2318 1001.4 21.9323 1001.9 21.7188C1002.39 21.5 1002.96 21.3906 1003.6 21.3906C1004.24 21.3906 1004.81 21.5 1005.31 21.7188C1005.81 21.9323 1006.23 22.2318 1006.57 22.6172C1006.92 23.0026 1007.18 23.4583 1007.35 23.9844C1007.53 24.5052 1007.62 25.0755 1007.62 25.6953V25.8594C1007.62 26.474 1007.53 27.0443 1007.35 27.5703C1007.18 28.0911 1006.92 28.5469 1006.57 28.9375C1006.23 29.3229 1005.82 29.6224 1005.32 29.8359C1004.83 30.0495 1004.26 30.1562 1003.62 30.1562C1002.98 30.1562 1002.41 30.0495 1001.91 29.8359C1001.41 29.6224 1000.99 29.3229 1000.65 28.9375C1000.31 28.5469 1000.05 28.0911 999.876 27.5703C999.699 27.0443 999.61 26.474 999.61 25.8594ZM1001.86 25.6953V25.8594C1001.86 26.2135 1001.89 26.5443 1001.95 26.8516C1002.02 27.1589 1002.12 27.4297 1002.25 27.6641C1002.39 27.8932 1002.57 28.0729 1002.8 28.2031C1003.02 28.3333 1003.3 28.3984 1003.62 28.3984C1003.93 28.3984 1004.2 28.3333 1004.42 28.2031C1004.65 28.0729 1004.83 27.8932 1004.96 27.6641C1005.1 27.4297 1005.2 27.1589 1005.26 26.8516C1005.33 26.5443 1005.36 26.2135 1005.36 25.8594V25.6953C1005.36 25.3516 1005.33 25.0286 1005.26 24.7266C1005.2 24.4193 1005.09 24.1484 1004.95 23.9141C1004.82 23.6745 1004.64 23.487 1004.42 23.3516C1004.19 23.2161 1003.92 23.1484 1003.6 23.1484C1003.28 23.1484 1003.01 23.2161 1002.79 23.3516C1002.57 23.487 1002.39 23.6745 1002.25 23.9141C1002.12 24.1484 1002.02 24.4193 1001.95 24.7266C1001.89 25.0286 1001.86 25.3516 1001.86 25.6953ZM1011.75 28.3594L1013.63 21.5469H1015.98L1013.13 30H1011.7L1011.75 28.3594ZM1010.46 21.5469L1012.34 28.3672L1012.38 30H1010.95L1008.1 21.5469H1010.46ZM1021.42 28.0938V24.3281C1021.42 24.0573 1021.38 23.8255 1021.29 23.6328C1021.2 23.4349 1021.06 23.2812 1020.88 23.1719C1020.69 23.0625 1020.46 23.0078 1020.17 23.0078C1019.92 23.0078 1019.7 23.0521 1019.52 23.1406C1019.33 23.224 1019.19 23.3464 1019.09 23.5078C1019 23.6641 1018.95 23.849 1018.95 24.0625H1016.7C1016.7 23.7031 1016.78 23.362 1016.95 23.0391C1017.11 22.7161 1017.36 22.4323 1017.67 22.1875C1017.99 21.9375 1018.37 21.7422 1018.81 21.6016C1019.25 21.4609 1019.74 21.3906 1020.29 21.3906C1020.95 21.3906 1021.53 21.5 1022.04 21.7188C1022.55 21.9375 1022.95 22.2656 1023.24 22.7031C1023.54 23.1406 1023.69 23.6875 1023.69 24.3438V27.9609C1023.69 28.4245 1023.72 28.8047 1023.77 29.1016C1023.83 29.3932 1023.92 29.6484 1024.02 29.8672V30H1021.75C1021.64 29.7708 1021.56 29.4844 1021.5 29.1406C1021.45 28.7917 1021.42 28.4427 1021.42 28.0938ZM1021.72 24.8516L1021.74 26.125H1020.48C1020.18 26.125 1019.92 26.1589 1019.7 26.2266C1019.49 26.2943 1019.31 26.3906 1019.17 26.5156C1019.02 26.6354 1018.92 26.776 1018.85 26.9375C1018.79 27.099 1018.76 27.276 1018.76 27.4688C1018.76 27.6615 1018.8 27.8359 1018.89 27.9922C1018.98 28.1432 1019.11 28.263 1019.27 28.3516C1019.44 28.4349 1019.64 28.4766 1019.86 28.4766C1020.2 28.4766 1020.49 28.4089 1020.74 28.2734C1020.99 28.138 1021.19 27.9714 1021.32 27.7734C1021.46 27.5755 1021.53 27.388 1021.54 27.2109L1022.13 28.1641C1022.05 28.3776 1021.94 28.599 1021.79 28.8281C1021.65 29.0573 1021.47 29.2734 1021.25 29.4766C1021.03 29.6745 1020.77 29.8385 1020.46 29.9688C1020.15 30.0938 1019.79 30.1562 1019.37 30.1562C1018.83 30.1562 1018.34 30.0495 1017.91 29.8359C1017.47 29.6172 1017.13 29.3177 1016.88 28.9375C1016.63 28.5521 1016.5 28.1146 1016.5 27.625C1016.5 27.1823 1016.58 26.7891 1016.75 26.4453C1016.92 26.1016 1017.16 25.8125 1017.49 25.5781C1017.81 25.3385 1018.22 25.1589 1018.71 25.0391C1019.2 24.9141 1019.77 24.8516 1020.42 24.8516H1021.72ZM1033.55 21.5469V23.1406H1028.63V21.5469H1033.55ZM1029.84 19.4609H1032.09V27.4531C1032.09 27.6979 1032.13 27.8854 1032.19 28.0156C1032.26 28.1458 1032.36 28.237 1032.49 28.2891C1032.62 28.3359 1032.78 28.3594 1032.98 28.3594C1033.12 28.3594 1033.24 28.3542 1033.35 28.3438C1033.47 28.3281 1033.56 28.3125 1033.64 28.2969L1033.65 29.9531C1033.46 30.0156 1033.25 30.0651 1033.02 30.1016C1032.8 30.138 1032.55 30.1562 1032.28 30.1562C1031.79 30.1562 1031.36 30.0755 1030.99 29.9141C1030.62 29.7474 1030.34 29.4818 1030.14 29.1172C1029.94 28.7526 1029.84 28.2734 1029.84 27.6797V19.4609ZM1037.08 23.3906V30H1034.83V21.5469H1036.95L1037.08 23.3906ZM1039.63 21.4922L1039.59 23.5781C1039.48 23.5625 1039.34 23.5495 1039.19 23.5391C1039.04 23.5234 1038.9 23.5156 1038.77 23.5156C1038.46 23.5156 1038.18 23.5573 1037.95 23.6406C1037.72 23.7188 1037.52 23.8359 1037.37 23.9922C1037.22 24.1484 1037.1 24.3385 1037.02 24.5625C1036.95 24.7865 1036.91 25.0417 1036.9 25.3281L1036.45 25.1875C1036.45 24.6406 1036.5 24.138 1036.61 23.6797C1036.72 23.2161 1036.88 22.8125 1037.09 22.4688C1037.3 22.125 1037.56 21.8594 1037.87 21.6719C1038.18 21.4844 1038.53 21.3906 1038.92 21.3906C1039.05 21.3906 1039.18 21.401 1039.31 21.4219C1039.44 21.4375 1039.54 21.4609 1039.63 21.4922ZM1044.99 28.0938V24.3281C1044.99 24.0573 1044.94 23.8255 1044.85 23.6328C1044.76 23.4349 1044.63 23.2812 1044.44 23.1719C1044.26 23.0625 1044.02 23.0078 1043.73 23.0078C1043.48 23.0078 1043.26 23.0521 1043.08 23.1406C1042.9 23.224 1042.76 23.3464 1042.66 23.5078C1042.56 23.6641 1042.51 23.849 1042.51 24.0625H1040.26C1040.26 23.7031 1040.34 23.362 1040.51 23.0391C1040.68 22.7161 1040.92 22.4323 1041.24 22.1875C1041.55 21.9375 1041.93 21.7422 1042.37 21.6016C1042.81 21.4609 1043.31 21.3906 1043.85 21.3906C1044.51 21.3906 1045.09 21.5 1045.6 21.7188C1046.11 21.9375 1046.51 22.2656 1046.81 22.7031C1047.1 23.1406 1047.25 23.6875 1047.25 24.3438V27.9609C1047.25 28.4245 1047.28 28.8047 1047.34 29.1016C1047.39 29.3932 1047.48 29.6484 1047.59 29.8672V30H1045.31C1045.2 29.7708 1045.12 29.4844 1045.06 29.1406C1045.01 28.7917 1044.99 28.4427 1044.99 28.0938ZM1045.28 24.8516L1045.3 26.125H1044.04C1043.74 26.125 1043.49 26.1589 1043.27 26.2266C1043.05 26.2943 1042.87 26.3906 1042.73 26.5156C1042.59 26.6354 1042.48 26.776 1042.42 26.9375C1042.35 27.099 1042.32 27.276 1042.32 27.4688C1042.32 27.6615 1042.37 27.8359 1042.45 27.9922C1042.54 28.1432 1042.67 28.263 1042.84 28.3516C1043 28.4349 1043.2 28.4766 1043.42 28.4766C1043.76 28.4766 1044.06 28.4089 1044.31 28.2734C1044.56 28.138 1044.75 27.9714 1044.88 27.7734C1045.02 27.5755 1045.1 27.388 1045.1 27.2109L1045.7 28.1641C1045.61 28.3776 1045.5 28.599 1045.35 28.8281C1045.21 29.0573 1045.03 29.2734 1044.81 29.4766C1044.59 29.6745 1044.33 29.8385 1044.02 29.9688C1043.72 30.0938 1043.35 30.1562 1042.93 30.1562C1042.39 30.1562 1041.91 30.0495 1041.47 29.8359C1041.04 29.6172 1040.69 29.3177 1040.44 28.9375C1040.19 28.5521 1040.06 28.1146 1040.06 27.625C1040.06 27.1823 1040.15 26.7891 1040.31 26.4453C1040.48 26.1016 1040.72 25.8125 1041.05 25.5781C1041.38 25.3385 1041.78 25.1589 1042.27 25.0391C1042.76 24.9141 1043.33 24.8516 1043.98 24.8516H1045.28ZM1051.19 23.3516V30H1048.94V21.5469H1051.05L1051.19 23.3516ZM1050.86 25.4766H1050.25C1050.25 24.8516 1050.33 24.2891 1050.49 23.7891C1050.65 23.2839 1050.88 22.8542 1051.17 22.5C1051.46 22.1406 1051.81 21.8672 1052.21 21.6797C1052.62 21.487 1053.07 21.3906 1053.57 21.3906C1053.97 21.3906 1054.33 21.4479 1054.66 21.5625C1054.99 21.6771 1055.27 21.8594 1055.5 22.1094C1055.74 22.3594 1055.92 22.6901 1056.05 23.1016C1056.18 23.513 1056.24 24.0156 1056.24 24.6094V30H1053.98V24.6016C1053.98 24.2266 1053.93 23.9349 1053.82 23.7266C1053.72 23.5182 1053.56 23.3724 1053.36 23.2891C1053.16 23.2005 1052.92 23.1562 1052.63 23.1562C1052.32 23.1562 1052.06 23.2161 1051.84 23.3359C1051.62 23.4557 1051.44 23.6224 1051.29 23.8359C1051.15 24.0443 1051.04 24.2891 1050.97 24.5703C1050.9 24.8516 1050.86 25.1536 1050.86 25.4766ZM1062.52 27.6641C1062.52 27.5026 1062.48 27.3568 1062.38 27.2266C1062.29 27.0964 1062.12 26.9766 1061.86 26.8672C1061.61 26.7526 1061.25 26.6484 1060.77 26.5547C1060.35 26.4609 1059.95 26.3438 1059.58 26.2031C1059.21 26.0573 1058.9 25.8828 1058.63 25.6797C1058.36 25.4766 1058.15 25.237 1058 24.9609C1057.85 24.6797 1057.77 24.3594 1057.77 24C1057.77 23.6458 1057.85 23.3125 1058 23C1058.16 22.6875 1058.38 22.4115 1058.67 22.1719C1058.96 21.9271 1059.31 21.737 1059.73 21.6016C1060.15 21.4609 1060.62 21.3906 1061.15 21.3906C1061.88 21.3906 1062.51 21.5078 1063.04 21.7422C1063.57 21.9766 1063.98 22.2995 1064.26 22.7109C1064.55 23.1172 1064.69 23.5807 1064.69 24.1016H1062.44C1062.44 23.8828 1062.39 23.6875 1062.3 23.5156C1062.21 23.3385 1062.07 23.2005 1061.88 23.1016C1061.69 22.9974 1061.44 22.9453 1061.14 22.9453C1060.89 22.9453 1060.68 22.9896 1060.49 23.0781C1060.31 23.1615 1060.17 23.276 1060.07 23.4219C1059.98 23.5625 1059.93 23.7188 1059.93 23.8906C1059.93 24.0208 1059.96 24.138 1060.01 24.2422C1060.07 24.3411 1060.16 24.4323 1060.28 24.5156C1060.41 24.599 1060.57 24.6771 1060.77 24.75C1060.97 24.8177 1061.22 24.8802 1061.52 24.9375C1062.13 25.0625 1062.67 25.2266 1063.15 25.4297C1063.63 25.6276 1064.01 25.8984 1064.29 26.2422C1064.57 26.5807 1064.71 27.026 1064.71 27.5781C1064.71 27.9531 1064.63 28.2969 1064.46 28.6094C1064.3 28.9219 1064.06 29.1953 1063.74 29.4297C1063.43 29.6589 1063.06 29.8385 1062.62 29.9688C1062.19 30.0938 1061.7 30.1562 1061.16 30.1562C1060.37 30.1562 1059.7 30.0156 1059.16 29.7344C1058.62 29.4531 1058.2 29.0964 1057.92 28.6641C1057.65 28.2266 1057.51 27.7786 1057.51 27.3203H1059.64C1059.65 27.6276 1059.73 27.875 1059.88 28.0625C1060.03 28.25 1060.22 28.3854 1060.45 28.4688C1060.68 28.5521 1060.93 28.5938 1061.2 28.5938C1061.5 28.5938 1061.74 28.5547 1061.93 28.4766C1062.12 28.3932 1062.27 28.2839 1062.37 28.1484C1062.47 28.0078 1062.52 27.8464 1062.52 27.6641ZM1070.74 28.0938V24.3281C1070.74 24.0573 1070.69 23.8255 1070.6 23.6328C1070.51 23.4349 1070.38 23.2812 1070.19 23.1719C1070.01 23.0625 1069.77 23.0078 1069.48 23.0078C1069.23 23.0078 1069.01 23.0521 1068.83 23.1406C1068.65 23.224 1068.51 23.3464 1068.41 23.5078C1068.31 23.6641 1068.26 23.849 1068.26 24.0625H1066.01C1066.01 23.7031 1066.09 23.362 1066.26 23.0391C1066.43 22.7161 1066.67 22.4323 1066.99 22.1875C1067.3 21.9375 1067.68 21.7422 1068.12 21.6016C1068.56 21.4609 1069.06 21.3906 1069.6 21.3906C1070.26 21.3906 1070.84 21.5 1071.35 21.7188C1071.86 21.9375 1072.26 22.2656 1072.56 22.7031C1072.85 23.1406 1073 23.6875 1073 24.3438V27.9609C1073 28.4245 1073.03 28.8047 1073.09 29.1016C1073.14 29.3932 1073.23 29.6484 1073.34 29.8672V30H1071.06C1070.95 29.7708 1070.87 29.4844 1070.81 29.1406C1070.76 28.7917 1070.74 28.4427 1070.74 28.0938ZM1071.03 24.8516L1071.05 26.125H1069.79C1069.49 26.125 1069.24 26.1589 1069.02 26.2266C1068.8 26.2943 1068.62 26.3906 1068.48 26.5156C1068.34 26.6354 1068.23 26.776 1068.17 26.9375C1068.1 27.099 1068.07 27.276 1068.07 27.4688C1068.07 27.6615 1068.12 27.8359 1068.2 27.9922C1068.29 28.1432 1068.42 28.263 1068.59 28.3516C1068.75 28.4349 1068.95 28.4766 1069.17 28.4766C1069.51 28.4766 1069.81 28.4089 1070.06 28.2734C1070.31 28.138 1070.5 27.9714 1070.63 27.7734C1070.77 27.5755 1070.85 27.388 1070.85 27.2109L1071.45 28.1641C1071.36 28.3776 1071.25 28.599 1071.1 28.8281C1070.96 29.0573 1070.78 29.2734 1070.56 29.4766C1070.34 29.6745 1070.08 29.8385 1069.77 29.9688C1069.47 30.0938 1069.1 30.1562 1068.68 30.1562C1068.14 30.1562 1067.66 30.0495 1067.22 29.8359C1066.79 29.6172 1066.44 29.3177 1066.19 28.9375C1065.94 28.5521 1065.81 28.1146 1065.81 27.625C1065.81 27.1823 1065.9 26.7891 1066.06 26.4453C1066.23 26.1016 1066.47 25.8125 1066.8 25.5781C1067.13 25.3385 1067.53 25.1589 1068.02 25.0391C1068.51 24.9141 1069.08 24.8516 1069.73 24.8516H1071.03ZM1078.23 28.3984C1078.5 28.3984 1078.75 28.3464 1078.96 28.2422C1079.18 28.1328 1079.34 27.9818 1079.46 27.7891C1079.59 27.5911 1079.65 27.3594 1079.66 27.0938H1081.77C1081.77 27.6875 1081.61 28.2161 1081.3 28.6797C1080.99 29.138 1080.57 29.5 1080.04 29.7656C1079.51 30.026 1078.93 30.1562 1078.27 30.1562C1077.62 30.1562 1077.05 30.0469 1076.56 29.8281C1076.07 29.6094 1075.67 29.3073 1075.34 28.9219C1075.02 28.5312 1074.78 28.0781 1074.62 27.5625C1074.46 27.0417 1074.38 26.4844 1074.38 25.8906V25.6641C1074.38 25.0651 1074.46 24.5078 1074.62 23.9922C1074.78 23.4714 1075.02 23.0182 1075.34 22.6328C1075.67 22.2422 1076.07 21.9375 1076.56 21.7188C1077.04 21.5 1077.61 21.3906 1078.26 21.3906C1078.95 21.3906 1079.56 21.5234 1080.08 21.7891C1080.61 22.0547 1081.02 22.4349 1081.31 22.9297C1081.62 23.4193 1081.77 24 1081.77 24.6719H1079.66C1079.65 24.3906 1079.59 24.1354 1079.48 23.9062C1079.37 23.6771 1079.21 23.4948 1078.99 23.3594C1078.78 23.2188 1078.53 23.1484 1078.22 23.1484C1077.89 23.1484 1077.62 23.2188 1077.42 23.3594C1077.21 23.4948 1077.05 23.6823 1076.93 23.9219C1076.82 24.1562 1076.74 24.4245 1076.69 24.7266C1076.65 25.0234 1076.63 25.3359 1076.63 25.6641V25.8906C1076.63 26.2188 1076.65 26.5339 1076.69 26.8359C1076.73 27.138 1076.81 27.4062 1076.92 27.6406C1077.04 27.875 1077.21 28.0599 1077.42 28.1953C1077.62 28.3307 1077.89 28.3984 1078.23 28.3984ZM1077.38 29.9688H1079.08L1078.99 30.4297C1079.29 30.4818 1079.56 30.6068 1079.81 30.8047C1080.05 31.0026 1080.17 31.3281 1080.17 31.7812C1080.17 32.0573 1080.11 32.3073 1079.99 32.5312C1079.88 32.7552 1079.71 32.9479 1079.48 33.1094C1079.25 33.276 1078.96 33.401 1078.62 33.4844C1078.27 33.5729 1077.88 33.6172 1077.43 33.6172L1077.38 32.3672C1077.54 32.3672 1077.69 32.3438 1077.83 32.2969C1077.96 32.25 1078.07 32.1771 1078.15 32.0781C1078.23 31.9844 1078.27 31.8594 1078.27 31.7031C1078.27 31.5573 1078.23 31.4427 1078.15 31.3594C1078.07 31.276 1077.95 31.2135 1077.78 31.1719C1077.62 31.1302 1077.41 31.1016 1077.14 31.0859L1077.38 29.9688ZM1087.64 28.0938V24.3281C1087.64 24.0573 1087.6 23.8255 1087.51 23.6328C1087.42 23.4349 1087.28 23.2812 1087.09 23.1719C1086.91 23.0625 1086.68 23.0078 1086.38 23.0078C1086.13 23.0078 1085.92 23.0521 1085.74 23.1406C1085.55 23.224 1085.41 23.3464 1085.31 23.5078C1085.21 23.6641 1085.17 23.849 1085.17 24.0625H1082.92C1082.92 23.7031 1083 23.362 1083.17 23.0391C1083.33 22.7161 1083.57 22.4323 1083.89 22.1875C1084.21 21.9375 1084.59 21.7422 1085.02 21.6016C1085.47 21.4609 1085.96 21.3906 1086.51 21.3906C1087.17 21.3906 1087.75 21.5 1088.26 21.7188C1088.77 21.9375 1089.17 22.2656 1089.46 22.7031C1089.76 23.1406 1089.91 23.6875 1089.91 24.3438V27.9609C1089.91 28.4245 1089.94 28.8047 1089.99 29.1016C1090.05 29.3932 1090.13 29.6484 1090.24 29.8672V30H1087.97C1087.86 29.7708 1087.78 29.4844 1087.72 29.1406C1087.67 28.7917 1087.64 28.4427 1087.64 28.0938ZM1087.94 24.8516L1087.95 26.125H1086.7C1086.4 26.125 1086.14 26.1589 1085.92 26.2266C1085.7 26.2943 1085.52 26.3906 1085.38 26.5156C1085.24 26.6354 1085.14 26.776 1085.07 26.9375C1085.01 27.099 1084.98 27.276 1084.98 27.4688C1084.98 27.6615 1085.02 27.8359 1085.11 27.9922C1085.2 28.1432 1085.33 28.263 1085.49 28.3516C1085.66 28.4349 1085.86 28.4766 1086.08 28.4766C1086.42 28.4766 1086.71 28.4089 1086.96 28.2734C1087.21 28.138 1087.4 27.9714 1087.54 27.7734C1087.68 27.5755 1087.75 27.388 1087.76 27.2109L1088.35 28.1641C1088.27 28.3776 1088.15 28.599 1088.01 28.8281C1087.87 29.0573 1087.69 29.2734 1087.47 29.4766C1087.25 29.6745 1086.99 29.8385 1086.68 29.9688C1086.37 30.0938 1086.01 30.1562 1085.59 30.1562C1085.05 30.1562 1084.56 30.0495 1084.13 29.8359C1083.69 29.6172 1083.35 29.3177 1083.09 28.9375C1082.84 28.5521 1082.72 28.1146 1082.72 27.625C1082.72 27.1823 1082.8 26.7891 1082.97 26.4453C1083.14 26.1016 1083.38 25.8125 1083.7 25.5781C1084.03 25.3385 1084.44 25.1589 1084.93 25.0391C1085.42 24.9141 1085.99 24.8516 1086.63 24.8516H1087.94ZM1088.14 18.0391L1089.44 18.125C1089.44 18.5052 1089.36 18.8516 1089.21 19.1641C1089.06 19.4714 1088.85 19.7188 1088.59 19.9062C1088.32 20.0885 1088.02 20.1797 1087.67 20.1797C1087.42 20.1797 1087.21 20.1458 1087.02 20.0781C1086.85 20.0104 1086.68 19.9323 1086.53 19.8438C1086.38 19.75 1086.22 19.6693 1086.06 19.6016C1085.91 19.5339 1085.73 19.5 1085.52 19.5C1085.34 19.5 1085.19 19.5651 1085.06 19.6953C1084.93 19.8255 1084.87 20.013 1084.87 20.2578L1083.56 20.1875C1083.56 19.8125 1083.64 19.4688 1083.79 19.1562C1083.94 18.8438 1084.15 18.5938 1084.42 18.4062C1084.68 18.2135 1084.98 18.1172 1085.32 18.1172C1085.53 18.1172 1085.73 18.1536 1085.91 18.2266C1086.08 18.2943 1086.25 18.3724 1086.42 18.4609C1086.58 18.5495 1086.75 18.6276 1086.92 18.6953C1087.09 18.763 1087.28 18.7969 1087.47 18.7969C1087.65 18.7969 1087.81 18.7318 1087.94 18.6016C1088.07 18.4661 1088.14 18.2786 1088.14 18.0391ZM1091.28 25.8594V25.6953C1091.28 25.0755 1091.37 24.5052 1091.55 23.9844C1091.72 23.4583 1091.98 23.0026 1092.32 22.6172C1092.66 22.2318 1093.08 21.9323 1093.57 21.7188C1094.07 21.5 1094.63 21.3906 1095.27 21.3906C1095.92 21.3906 1096.49 21.5 1096.99 21.7188C1097.49 21.9323 1097.9 22.2318 1098.24 22.6172C1098.59 23.0026 1098.85 23.4583 1099.02 23.9844C1099.2 24.5052 1099.29 25.0755 1099.29 25.6953V25.8594C1099.29 26.474 1099.2 27.0443 1099.02 27.5703C1098.85 28.0911 1098.59 28.5469 1098.24 28.9375C1097.9 29.3229 1097.49 29.6224 1096.99 29.8359C1096.5 30.0495 1095.93 30.1562 1095.29 30.1562C1094.65 30.1562 1094.08 30.0495 1093.58 29.8359C1093.08 29.6224 1092.67 29.3229 1092.32 28.9375C1091.98 28.5469 1091.72 28.0911 1091.55 27.5703C1091.37 27.0443 1091.28 26.474 1091.28 25.8594ZM1093.53 25.6953V25.8594C1093.53 26.2135 1093.56 26.5443 1093.63 26.8516C1093.69 27.1589 1093.79 27.4297 1093.92 27.6641C1094.06 27.8932 1094.25 28.0729 1094.47 28.2031C1094.69 28.3333 1094.97 28.3984 1095.29 28.3984C1095.6 28.3984 1095.87 28.3333 1096.09 28.2031C1096.32 28.0729 1096.5 27.8932 1096.63 27.6641C1096.77 27.4297 1096.87 27.1589 1096.93 26.8516C1097 26.5443 1097.03 26.2135 1097.03 25.8594V25.6953C1097.03 25.3516 1097 25.0286 1096.93 24.7266C1096.87 24.4193 1096.77 24.1484 1096.63 23.9141C1096.49 23.6745 1096.31 23.487 1096.09 23.3516C1095.86 23.2161 1095.59 23.1484 1095.27 23.1484C1094.96 23.1484 1094.69 23.2161 1094.46 23.3516C1094.24 23.487 1094.06 23.6745 1093.92 23.9141C1093.79 24.1484 1093.69 24.4193 1093.63 24.7266C1093.56 25.0286 1093.53 25.3516 1093.53 25.6953Z" fill="white"/>
</svg>
